<svg xmlns="http://www.w3.org/2000/svg" width="302" height="97.057" viewBox="0 0 302 97.057">
  <g id="Group_76" data-name="Group 76" transform="translate(-1542 -1278)">
    <g id="Haecker-Logo_black_40mm" transform="translate(1304 876.1)">
      <path id="Path_17" data-name="Path 17" d="M285.483,439.325c0-1.854.794-4.237,3.442-4.237,2.383,0,3.442,2.118,3.442,4.237,0,2.383-.794,4.237-3.442,4.237-2.913.265-3.442-2.383-3.442-4.237Zm6.62-3.707c0,.265-.265-.529-.265-.529a4.138,4.138,0,0,0-3.177-1.589c-3.707,0-5.56,2.648-5.56,6.09s1.324,5.825,5.031,5.825A4.137,4.137,0,0,0,292.1,443.3h0c0,2.648,0,5.3-3.177,5.3-1.589,0-2.648-.53-2.648-2.118h-2.383c0,2.648,1.853,3.707,4.5,3.707,4.237,0,6.09-1.853,6.09-6.09v-8.208a5.828,5.828,0,0,1,.265-2.118h-2.383l-.265,1.853Z" transform="translate(71.022 48.776)" fill-rule="evenodd"/>
      <path id="Path_18" data-name="Path 18" d="M300.456,440.12V439.06c0-3.177-1.589-5.56-5.3-5.56s-5.56,2.913-5.56,6.355,1.589,6.09,5.3,6.09c2.913,0,4.766-1.324,5.3-3.972h-2.383c-.265,1.589-1.059,2.383-2.913,2.383-2.383,0-3.177-2.118-2.913-4.236Zm-8.208-1.589c0-1.854,1.059-3.442,2.913-3.442a2.812,2.812,0,0,1,2.913,3.442Z" transform="translate(81.733 48.776)" fill-rule="evenodd"/>
      <path id="Path_19" data-name="Path 19" d="M298.118,439.59c0-2.383.53-3.972,3.442-3.972h1.059V433.5h-.794c-1.589,0-3.177.794-3.442,2.383h0V433.5H296v11.915h2.118V439.59Z" transform="translate(92.279 48.776)"/>
      <path id="Path_20" data-name="Path 20" d="M302.918,433.765H300.8V445.68h2.118v-6.09a8.168,8.168,0,0,1,.265-2.383,3.13,3.13,0,0,1,2.913-1.854c2.118,0,2.648,1.324,2.648,3.442v6.884h2.118v-6.09a12.161,12.161,0,0,1,.265-2.648,2.619,2.619,0,0,1,2.648-1.853c2.648,0,2.913,1.853,2.913,3.442v6.884h2.118v-8.208c0-2.118-1.589-3.707-4.5-3.707a4.356,4.356,0,0,0-3.972,2.118c-.53-1.589-1.853-2.118-4.236-2.118a3.631,3.631,0,0,0-3.442,2.118h0v-1.853Z" transform="translate(100.189 48.776)"/>
      <path id="Path_21" data-name="Path 21" d="M317.679,439.855c0,2.118-.53,4.5-3.177,4.5a2.163,2.163,0,0,1-2.383-2.118c0-1.589,1.853-2.118,3.177-2.383h2.383Zm-1.853-1.589c-2.913,0-5.825,1.059-5.825,4.237,0,2.383,2.118,3.442,4.237,3.442a3.758,3.758,0,0,0,3.707-2.118h0v1.589c0,.265.53.265.53.265h1.589v-8.208c0-3.177-2.383-3.972-4.766-3.972s-4.237.794-4.5,3.442h2.383a1.876,1.876,0,0,1,2.118-1.853c2.383,0,2.383,1.324,2.383,3.177Z" transform="translate(115.349 48.776)" fill-rule="evenodd"/>
      <path id="Path_22" data-name="Path 22" d="M318.818,433.765H316.7V445.68h2.118v-6.355c0-2.383.53-2.913,1.059-3.177a2.362,2.362,0,0,1,2.118-.794c1.854,0,2.648,1.059,2.648,2.913v7.414h2.118v-8.208c0-3.707-3.707-3.972-4.5-3.972a4.272,4.272,0,0,0-3.707,2.118h0v-1.853Z" transform="translate(126.389 48.776)"/>
      <path id="Path_23" data-name="Path 23" d="M341.144,439.855c0,2.118-.53,4.5-3.177,4.5a2.163,2.163,0,0,1-2.383-2.118c0-1.589,1.853-2.118,3.177-2.383h2.383Zm-2.118-1.589c-2.913,0-5.825,1.059-5.825,4.237,0,2.383,2.118,3.442,4.237,3.442a3.758,3.758,0,0,0,3.707-2.118h0v1.589c0,.265.53.265.53.265h1.589v-8.208c0-3.177-2.383-3.972-4.766-3.972s-4.237.794-4.5,3.442h2.383a1.876,1.876,0,0,1,2.118-1.853c2.383,0,2.383,1.324,2.383,3.177Z" transform="translate(153.578 48.776)" fill-rule="evenodd"/>
      <path id="Path_24" data-name="Path 24" d="M341.683,442.391c0-2.118.53-4.766,3.442-4.766,2.648,0,3.442,2.648,3.442,4.766s-.53,4.766-3.442,4.766c-2.648,0-3.442-2.383-3.442-4.766Zm6.62-4.236h0A4.006,4.006,0,0,0,344.6,436.3c-3.707,0-5.3,3.177-5.3,6.355,0,2.913,1.324,6.355,4.766,6.355a4.137,4.137,0,0,0,3.972-2.118h0v1.853h2.383V431.8H348.3v6.355Z" transform="translate(163.63 45.975)" fill-rule="evenodd"/>
      <path id="Path_25" data-name="Path 25" d="M356.656,440.12V439.06c0-3.177-1.589-5.56-5.3-5.56s-5.561,2.913-5.561,6.355,1.589,6.09,5.3,6.09c2.913,0,4.766-1.324,5.3-3.972h-2.118c-.265,1.589-1.059,2.383-2.913,2.383-2.383,0-3.177-2.118-2.913-4.236Zm-8.208-1.589c0-1.854,1.059-3.442,2.913-3.442a2.812,2.812,0,0,1,2.913,3.442Z" transform="translate(174.341 48.776)" fill-rule="evenodd"/>
      <path id="Path_26" data-name="Path 26" d="M355.113,440.077V436.9H352.2v3.177Z" transform="translate(184.887 54.379)"/>
      <path id="Path_27" data-name="Path 27" d="M339.422,447.328h2.118V432.5h-3.707l-4.766,12.18h0l-5.031-12.18H323.8v14.828h2.383v-13.5h0l5.56,13.5h2.118l5.3-13.5h.265Z" transform="translate(138.089 47.128)"/>
      <path id="Path_28" data-name="Path 28" d="M243.442,431.6H240v17.211h3.442v-6.62h.265l3.442,6.62h3.972l-4.237-6.884,4.237-5.3h-3.972l-3.442,5.031h-.265Z" transform="translate(0 45.645)"/>
      <path id="Path_29" data-name="Path 29" d="M246.265,436.9v11.915h3.442V436.9ZM246,431.6v2.913h3.707V431.6Z" transform="translate(9.887 45.645)" fill-rule="evenodd"/>
      <path id="Path_30" data-name="Path 30" d="M249.1,435.907v2.383h2.383v5.825c0,2.648.53,3.972,3.442,3.972.53,0,2.383-.265,2.648-.265V445.7h-1.059c-1.324,0-1.589-.53-1.589-1.854v-5.56h2.648v-2.383h-2.648V432.2l-3.442,1.324v2.383Z" transform="translate(14.995 46.634)"/>
      <path id="Path_31" data-name="Path 31" d="M264.591,438c0-2.648-2.118-4.5-5.3-4.5-3.442,0-5.3,3.177-5.3,6.355s1.853,6.355,5.3,6.355c3.177,0,5.031-1.589,5.3-4.766h-3.442c0,1.059-.53,2.383-1.853,2.383-1.589,0-1.589-2.913-1.589-3.972,0-.794,0-3.707,1.589-3.707a1.876,1.876,0,0,1,1.853,2.118h3.442Z" transform="translate(23.07 48.776)"/>
      <path id="Path_32" data-name="Path 32" d="M263.607,448.646V441.5a2.423,2.423,0,0,1,2.118-2.648c1.853,0,2.118,1.324,2.118,2.648v7.149h3.442v-7.679a5.17,5.17,0,0,0-.265-1.854,4.636,4.636,0,0,0-3.972-2.648,4.27,4.27,0,0,0-3.707,1.854h0V431.7H259.9v16.946Z" transform="translate(32.792 45.81)"/>
      <path id="Path_33" data-name="Path 33" d="M277.521,440.814v-2.383a4.986,4.986,0,0,0-.53-2.118,5.207,5.207,0,0,0-5.031-2.913c-3.707,0-5.561,2.648-5.561,6.355,0,3.972,1.589,6.355,5.561,6.355,2.648,0,5.031-1.059,5.3-3.972h-3.178a2.013,2.013,0,0,1-2.118,1.589c-1.854,0-2.118-1.324-2.118-2.913Zm-7.679-2.383c0-1.324.53-2.383,2.118-2.383a2.142,2.142,0,0,1,2.118,2.383Z" transform="translate(43.503 48.611)" fill-rule="evenodd"/>
      <path id="Path_34" data-name="Path 34" d="M276.042,433.765H272.6V445.68h3.442v-7.149a2.423,2.423,0,0,1,2.118-2.648c1.854,0,2.118,1.324,2.118,2.648v7.149h3.442V438a5.17,5.17,0,0,0-.265-1.854,4.635,4.635,0,0,0-3.972-2.648,4.27,4.27,0,0,0-3.707,1.853h0v-1.589Z" transform="translate(53.72 48.776)"/>
      <path id="Path_35" data-name="Path 35" d="M282.413,440.077V436.9H279.5v3.177Z" transform="translate(65.09 54.379)"/>
      <path id="Path_36" data-name="Path 36" d="M256.946,462.71V441h18.005V462.71H291.9V407.9H274.951v21.712H257.211V407.9H240v54.81Z" transform="translate(0 6.591)"/>
      <path id="Path_37" data-name="Path 37" d="M294.428,438.309c-5.825,0-17.476-.265-17.476,8.738,0,4.766,3.442,7.943,8.208,7.943,9,.265,9.267-10.062,9.267-16.681ZM279.335,424.54H263.448c0-7.149,3.177-11.386,7.414-14.034,4.5-2.648,10.327-3.707,16.417-3.707,11.121,0,23.566,4.237,23.566,20.918v30.715a28.37,28.37,0,0,0,.794,6.09H296.811c-.265-2.648-.53-5.031-.53-7.414h-.265c-3.707,6.355-9.532,9.267-16.946,9.267-10.327,0-18.27-6.09-18.27-16.946a19.439,19.439,0,0,1,11.915-17.741c6.62-2.913,15.093-3.178,21.712-2.913v-5.3c0-2.383-1.854-6.884-7.679-6.884-5.56-.265-7.414,5.3-7.414,7.943Z" transform="translate(34.275 4.779)" fill-rule="evenodd"/>
      <path id="Path_38" data-name="Path 38" d="M277.8,408.666V403.9H264.3v4.766Z" transform="translate(40.042 0)"/>
      <path id="Path_39" data-name="Path 39" d="M285.269,408.666V403.9H271.5v4.766Z" transform="translate(51.907 0)"/>
      <path id="Path_40" data-name="Path 40" d="M330.415,428.247c0-13.239-10.327-21.448-24.625-21.448-16.417,0-24.89,14.828-24.89,29.656s8.208,29.656,24.89,29.656c15.357,0,24.1-7.943,24.625-22.242H314.263c0,4.5-2.118,10.856-8.473,10.856-7.149,0-7.149-14.3-7.679-19.329.265-4.237.265-17.741,7.414-17.741,6.355,0,8.208,5.56,8.473,10.062h16.417Z" transform="translate(67.397 4.779)"/>
      <path id="Path_41" data-name="Path 41" d="M317.746,408v54.81H300.8V408Z" transform="translate(100.189 6.756)"/>
      <path id="Path_42" data-name="Path 42" d="M306.7,433.684h0V432.1h0L323.911,408h20.124L324.44,432.1l20.388,30.715H324.176Z" transform="translate(109.911 6.756)"/>
      <path id="Path_43" data-name="Path 43" d="M336.146,430.236h19.064c0-6.09-1.589-11.915-9.532-11.915-7.679,0-9.267,5.825-9.532,11.915Zm36.011,11.121H336.146c0,7.149,1.059,14.034,9.532,14.034,5.825,0,8.473-2.118,10.062-7.149h14.828c-1.324,13.769-12.18,18.535-24.89,18.535-18.8,0-26.478-10.856-26.478-29.656,0-16.946,9.532-29.921,26.478-29.921,10.327,0,18.8,3.707,23.566,13.5a25.76,25.76,0,0,1,2.648,10.062c.265,3.442.265,6.885.265,10.591Z" transform="translate(130.509 5.438)" fill-rule="evenodd"/>
      <path id="Path_44" data-name="Path 44" d="M340.3,408.408c.265,3.972.53,8.738.53,10.856v43.954h16.417V435.945a20.427,20.427,0,0,1,2.118-9.8c1.589-2.383,5.3-3.707,7.943-3.972h7.149V407.613c-8.208-.265-15.357,1.854-18.8,10.591h-.265l-.265-10.062H340.3Z" transform="translate(165.278 6.084)"/>
    </g>
    <g id="Haecker-Logo_black_40mm-2" data-name="Haecker-Logo_black_40mm" transform="translate(1302 874.1)">
      <path id="Path_17-2" data-name="Path 17" d="M285.483,439.325c0-1.854.794-4.237,3.442-4.237,2.383,0,3.442,2.118,3.442,4.237,0,2.383-.794,4.237-3.442,4.237-2.913.265-3.442-2.383-3.442-4.237Zm6.62-3.707c0,.265-.265-.529-.265-.529a4.138,4.138,0,0,0-3.177-1.589c-3.707,0-5.56,2.648-5.56,6.09s1.324,5.825,5.031,5.825A4.137,4.137,0,0,0,292.1,443.3h0c0,2.648,0,5.3-3.177,5.3-1.589,0-2.648-.53-2.648-2.118h-2.383c0,2.648,1.853,3.707,4.5,3.707,4.237,0,6.09-1.853,6.09-6.09v-8.208a5.828,5.828,0,0,1,.265-2.118h-2.383l-.265,1.853Z" transform="translate(71.022 48.776)" fill="#fff" fill-rule="evenodd"/>
      <path id="Path_18-2" data-name="Path 18" d="M300.456,440.12V439.06c0-3.177-1.589-5.56-5.3-5.56s-5.56,2.913-5.56,6.355,1.589,6.09,5.3,6.09c2.913,0,4.766-1.324,5.3-3.972h-2.383c-.265,1.589-1.059,2.383-2.913,2.383-2.383,0-3.177-2.118-2.913-4.236Zm-8.208-1.589c0-1.854,1.059-3.442,2.913-3.442a2.812,2.812,0,0,1,2.913,3.442Z" transform="translate(81.733 48.776)" fill="#fff" fill-rule="evenodd"/>
      <path id="Path_19-2" data-name="Path 19" d="M298.118,439.59c0-2.383.53-3.972,3.442-3.972h1.059V433.5h-.794c-1.589,0-3.177.794-3.442,2.383h0V433.5H296v11.915h2.118V439.59Z" transform="translate(92.279 48.776)" fill="#fff"/>
      <path id="Path_20-2" data-name="Path 20" d="M302.918,433.765H300.8V445.68h2.118v-6.09a8.168,8.168,0,0,1,.265-2.383,3.13,3.13,0,0,1,2.913-1.854c2.118,0,2.648,1.324,2.648,3.442v6.884h2.118v-6.09a12.161,12.161,0,0,1,.265-2.648,2.619,2.619,0,0,1,2.648-1.853c2.648,0,2.913,1.853,2.913,3.442v6.884h2.118v-8.208c0-2.118-1.589-3.707-4.5-3.707a4.356,4.356,0,0,0-3.972,2.118c-.53-1.589-1.853-2.118-4.236-2.118a3.631,3.631,0,0,0-3.442,2.118h0v-1.853Z" transform="translate(100.189 48.776)" fill="#fff"/>
      <path id="Path_21-2" data-name="Path 21" d="M317.679,439.855c0,2.118-.53,4.5-3.177,4.5a2.163,2.163,0,0,1-2.383-2.118c0-1.589,1.853-2.118,3.177-2.383h2.383Zm-1.853-1.589c-2.913,0-5.825,1.059-5.825,4.237,0,2.383,2.118,3.442,4.237,3.442a3.758,3.758,0,0,0,3.707-2.118h0v1.589c0,.265.53.265.53.265h1.589v-8.208c0-3.177-2.383-3.972-4.766-3.972s-4.237.794-4.5,3.442h2.383a1.876,1.876,0,0,1,2.118-1.853c2.383,0,2.383,1.324,2.383,3.177Z" transform="translate(115.349 48.776)" fill="#fff" fill-rule="evenodd"/>
      <path id="Path_22-2" data-name="Path 22" d="M318.818,433.765H316.7V445.68h2.118v-6.355c0-2.383.53-2.913,1.059-3.177a2.362,2.362,0,0,1,2.118-.794c1.854,0,2.648,1.059,2.648,2.913v7.414h2.118v-8.208c0-3.707-3.707-3.972-4.5-3.972a4.272,4.272,0,0,0-3.707,2.118h0v-1.853Z" transform="translate(126.389 48.776)" fill="#fff"/>
      <path id="Path_23-2" data-name="Path 23" d="M341.144,439.855c0,2.118-.53,4.5-3.177,4.5a2.163,2.163,0,0,1-2.383-2.118c0-1.589,1.853-2.118,3.177-2.383h2.383Zm-2.118-1.589c-2.913,0-5.825,1.059-5.825,4.237,0,2.383,2.118,3.442,4.237,3.442a3.758,3.758,0,0,0,3.707-2.118h0v1.589c0,.265.53.265.53.265h1.589v-8.208c0-3.177-2.383-3.972-4.766-3.972s-4.237.794-4.5,3.442h2.383a1.876,1.876,0,0,1,2.118-1.853c2.383,0,2.383,1.324,2.383,3.177Z" transform="translate(153.578 48.776)" fill="#fff" fill-rule="evenodd"/>
      <path id="Path_24-2" data-name="Path 24" d="M341.683,442.391c0-2.118.53-4.766,3.442-4.766,2.648,0,3.442,2.648,3.442,4.766s-.53,4.766-3.442,4.766c-2.648,0-3.442-2.383-3.442-4.766Zm6.62-4.236h0A4.006,4.006,0,0,0,344.6,436.3c-3.707,0-5.3,3.177-5.3,6.355,0,2.913,1.324,6.355,4.766,6.355a4.137,4.137,0,0,0,3.972-2.118h0v1.853h2.383V431.8H348.3v6.355Z" transform="translate(163.63 45.975)" fill="#fff" fill-rule="evenodd"/>
      <path id="Path_25-2" data-name="Path 25" d="M356.656,440.12V439.06c0-3.177-1.589-5.56-5.3-5.56s-5.561,2.913-5.561,6.355,1.589,6.09,5.3,6.09c2.913,0,4.766-1.324,5.3-3.972h-2.118c-.265,1.589-1.059,2.383-2.913,2.383-2.383,0-3.177-2.118-2.913-4.236Zm-8.208-1.589c0-1.854,1.059-3.442,2.913-3.442a2.812,2.812,0,0,1,2.913,3.442Z" transform="translate(174.341 48.776)" fill="#fff" fill-rule="evenodd"/>
      <path id="Path_26-2" data-name="Path 26" d="M355.113,440.077V436.9H352.2v3.177Z" transform="translate(184.887 54.379)" fill="#fff"/>
      <path id="Path_27-2" data-name="Path 27" d="M339.422,447.328h2.118V432.5h-3.707l-4.766,12.18h0l-5.031-12.18H323.8v14.828h2.383v-13.5h0l5.56,13.5h2.118l5.3-13.5h.265Z" transform="translate(138.089 47.128)" fill="#fff"/>
      <path id="Path_28-2" data-name="Path 28" d="M243.442,431.6H240v17.211h3.442v-6.62h.265l3.442,6.62h3.972l-4.237-6.884,4.237-5.3h-3.972l-3.442,5.031h-.265Z" transform="translate(0 45.645)" fill="#fff"/>
      <path id="Path_29-2" data-name="Path 29" d="M246.265,436.9v11.915h3.442V436.9ZM246,431.6v2.913h3.707V431.6Z" transform="translate(9.887 45.645)" fill="#fff" fill-rule="evenodd"/>
      <path id="Path_30-2" data-name="Path 30" d="M249.1,435.907v2.383h2.383v5.825c0,2.648.53,3.972,3.442,3.972.53,0,2.383-.265,2.648-.265V445.7h-1.059c-1.324,0-1.589-.53-1.589-1.854v-5.56h2.648v-2.383h-2.648V432.2l-3.442,1.324v2.383Z" transform="translate(14.995 46.634)" fill="#fff"/>
      <path id="Path_31-2" data-name="Path 31" d="M264.591,438c0-2.648-2.118-4.5-5.3-4.5-3.442,0-5.3,3.177-5.3,6.355s1.853,6.355,5.3,6.355c3.177,0,5.031-1.589,5.3-4.766h-3.442c0,1.059-.53,2.383-1.853,2.383-1.589,0-1.589-2.913-1.589-3.972,0-.794,0-3.707,1.589-3.707a1.876,1.876,0,0,1,1.853,2.118h3.442Z" transform="translate(23.07 48.776)" fill="#fff"/>
      <path id="Path_32-2" data-name="Path 32" d="M263.607,448.646V441.5a2.423,2.423,0,0,1,2.118-2.648c1.853,0,2.118,1.324,2.118,2.648v7.149h3.442v-7.679a5.17,5.17,0,0,0-.265-1.854,4.636,4.636,0,0,0-3.972-2.648,4.27,4.27,0,0,0-3.707,1.854h0V431.7H259.9v16.946Z" transform="translate(32.792 45.81)" fill="#fff"/>
      <path id="Path_33-2" data-name="Path 33" d="M277.521,440.814v-2.383a4.986,4.986,0,0,0-.53-2.118,5.207,5.207,0,0,0-5.031-2.913c-3.707,0-5.561,2.648-5.561,6.355,0,3.972,1.589,6.355,5.561,6.355,2.648,0,5.031-1.059,5.3-3.972h-3.178a2.013,2.013,0,0,1-2.118,1.589c-1.854,0-2.118-1.324-2.118-2.913Zm-7.679-2.383c0-1.324.53-2.383,2.118-2.383a2.142,2.142,0,0,1,2.118,2.383Z" transform="translate(43.503 48.611)" fill="#fff" fill-rule="evenodd"/>
      <path id="Path_34-2" data-name="Path 34" d="M276.042,433.765H272.6V445.68h3.442v-7.149a2.423,2.423,0,0,1,2.118-2.648c1.854,0,2.118,1.324,2.118,2.648v7.149h3.442V438a5.17,5.17,0,0,0-.265-1.854,4.635,4.635,0,0,0-3.972-2.648,4.27,4.27,0,0,0-3.707,1.853h0v-1.589Z" transform="translate(53.72 48.776)" fill="#fff"/>
      <path id="Path_35-2" data-name="Path 35" d="M282.413,440.077V436.9H279.5v3.177Z" transform="translate(65.09 54.379)" fill="#fff"/>
      <path id="Path_36-2" data-name="Path 36" d="M256.946,462.71V441h18.005V462.71H291.9V407.9H274.951v21.712H257.211V407.9H240v54.81Z" transform="translate(0 6.591)" fill="#fff"/>
      <path id="Path_37-2" data-name="Path 37" d="M294.428,438.309c-5.825,0-17.476-.265-17.476,8.738,0,4.766,3.442,7.943,8.208,7.943,9,.265,9.267-10.062,9.267-16.681ZM279.335,424.54H263.448c0-7.149,3.177-11.386,7.414-14.034,4.5-2.648,10.327-3.707,16.417-3.707,11.121,0,23.566,4.237,23.566,20.918v30.715a28.37,28.37,0,0,0,.794,6.09H296.811c-.265-2.648-.53-5.031-.53-7.414h-.265c-3.707,6.355-9.532,9.267-16.946,9.267-10.327,0-18.27-6.09-18.27-16.946a19.439,19.439,0,0,1,11.915-17.741c6.62-2.913,15.093-3.178,21.712-2.913v-5.3c0-2.383-1.854-6.884-7.679-6.884-5.56-.265-7.414,5.3-7.414,7.943Z" transform="translate(34.275 4.779)" fill="#fff" fill-rule="evenodd"/>
      <path id="Path_38-2" data-name="Path 38" d="M277.8,408.666V403.9H264.3v4.766Z" transform="translate(40.042 0)" fill="#fff"/>
      <path id="Path_39-2" data-name="Path 39" d="M285.269,408.666V403.9H271.5v4.766Z" transform="translate(51.907 0)" fill="#fff"/>
      <path id="Path_40-2" data-name="Path 40" d="M330.415,428.247c0-13.239-10.327-21.448-24.625-21.448-16.417,0-24.89,14.828-24.89,29.656s8.208,29.656,24.89,29.656c15.357,0,24.1-7.943,24.625-22.242H314.263c0,4.5-2.118,10.856-8.473,10.856-7.149,0-7.149-14.3-7.679-19.329.265-4.237.265-17.741,7.414-17.741,6.355,0,8.208,5.56,8.473,10.062h16.417Z" transform="translate(67.397 4.779)" fill="#fff"/>
      <path id="Path_41-2" data-name="Path 41" d="M317.746,408v54.81H300.8V408Z" transform="translate(100.189 6.756)" fill="#fff"/>
      <path id="Path_42-2" data-name="Path 42" d="M306.7,433.684h0V432.1h0L323.911,408h20.124L324.44,432.1l20.388,30.715H324.176Z" transform="translate(109.911 6.756)" fill="#fff"/>
      <path id="Path_43-2" data-name="Path 43" d="M336.146,430.236h19.064c0-6.09-1.589-11.915-9.532-11.915-7.679,0-9.267,5.825-9.532,11.915Zm36.011,11.121H336.146c0,7.149,1.059,14.034,9.532,14.034,5.825,0,8.473-2.118,10.062-7.149h14.828c-1.324,13.769-12.18,18.535-24.89,18.535-18.8,0-26.478-10.856-26.478-29.656,0-16.946,9.532-29.921,26.478-29.921,10.327,0,18.8,3.707,23.566,13.5a25.76,25.76,0,0,1,2.648,10.062c.265,3.442.265,6.885.265,10.591Z" transform="translate(130.509 5.438)" fill="#fff" fill-rule="evenodd"/>
      <path id="Path_44-2" data-name="Path 44" d="M340.3,408.408c.265,3.972.53,8.738.53,10.856v43.954h16.417V435.945a20.427,20.427,0,0,1,2.118-9.8c1.589-2.383,5.3-3.707,7.943-3.972h7.149V407.613c-8.208-.265-15.357,1.854-18.8,10.591h-.265l-.265-10.062H340.3Z" transform="translate(165.278 6.084)" fill="#fff"/>
    </g>
  </g>
</svg>
