<svg version="1.2" baseProfile="tiny-ps" xmlns="http://www.w3.org/2000/svg" viewBox="0 0 407 78" width="407" height="78">
	<title>brand-logo-hulsta-v1-svg</title>
	<style>
		tspan { white-space:pre }
		.s0 { fill: #000000 } 
		.s1 { fill: #ffffff } 
	</style>
	<g id="Group_78">
		<path id="Path_57" class="s0" d="m341.43 2.69h13.21c0 0 1.85 49.18-13.21 49.18v-49.18z" />
		<path id="Path_58" class="s0" d="m341.43 53.26c0 0 13.9 1.16 13.9 21.81h-13.9v-21.81z" />
		<path id="Path_59" class="s0" d="m406.31 75.07h-13.9c0-20.65 13.9-21.81 13.9-21.81v21.81z" />
		<path id="Path_60" class="s0" d="m406.31 51.87c-15.06 0-13.21-49.18-13.21-49.18h13.21v49.18z" />
		<path id="Path_61" class="s0" d="m390.78 75.07h-33.83v-2.56c0-10.67 7.65-19.49 16.91-19.49c9.27 0 16.91 8.81 16.91 19.49v2.56z" />
		<path id="Path_62" fill-rule="evenodd" class="s0" d="m389.85 32.85c0 10.21-7.18 18.56-15.98 18.56c-8.8 0-15.98-8.35-15.98-18.56l-1.4-30.16h34.99l-1.62 30.16zm-15.98 12.06c5.56 0 9.96-5.1 9.96-11.37c0-6.26-4.4-11.37-9.96-11.37c-5.56 0-9.96 5.1-9.96 11.37c0.23 6.26 4.63 11.37 9.96 11.37z" />
		<path id="Path_63" class="s0" d="m2.69 75.07v-69.36h18.77v22.97c0 0 7.65-7.89 22.47-7.89c0 0 20.39 0.7 20.39 21.81v32.48h-19.46v-30.62c0 0-0.46-10.44-10.89-10.44c0 0-12.05-0.23-12.05 10.9v29.92l-19.23 0.24z" />
		<path id="Rectangle_21" class="s0" d="m135.68 5.71h20.16v69.36h-20.16v-69.36z" />
		<path id="Rectangle_22" class="s0" d="m77.52 5.71h19.46v14.15h-19.46v-14.15z" />
		<path id="Rectangle_23" class="s0" d="m102.08 5.71h19.46v14.15h-19.46v-14.15z" />
		<path id="Path_64" class="s0" d="m68.95 25.42h19.69v27.37c0 0-0.69 12.76 11.35 12.76c0 0 11.59 1.16 11.59-14.38v-25.98h19v49.87h-17.84v-5.33c-1.43 1.39-2.98 2.64-4.65 3.73c-1.66 1.09-3.43 2.02-5.27 2.77c-1.84 0.75-3.75 1.33-5.7 1.72c-1.95 0.39-3.94 0.59-5.93 0.6c-1.99 0.01-22.47 1.85-22.47-22.04v-31.08h0.23z" />
		<path id="Path_65" class="s0" d="m224.89 13.82h19.23v10.67h11.12v12.06h-10.89v20.88c0 0-0.23 6.26 4.87 6.26h6.49v11.37h-21.09c0 0-9.73 0.93-9.73-13.45v-24.83h-6.48v-11.13h6.26v-11.83h0.23z" />
		<path id="Path_66" class="s0" d="m158.39 59.99h20.39c0 0-0.46 7.19 9.27 7.19c0 0 8.57 0.7 9.5-5.33c0 0 0.93-4.87-6.95-5.1c0 0-20.62 0.7-25.95-4.87c0 0-9.73-7.65-2.55-20.18c0 0 4.87-9.28 26.88-9.28c0 0 25.95-0.93 27.57 17.86h-19.46c0 0 0.23-7.65-9.96-7.42c0 0-7.65 0-7.88 5.33c0 0-0.93 5.57 10.2 5.33c0 0 28.04-1.86 28.04 16c0 0 0.93 18.56-28.96 18.56c0 0-29.66 2.09-30.12-18.09" />
		<path id="Path_67" fill-rule="evenodd" class="s0" d="m291.15 22.17c29.43 0 28.27 17.63 28.27 17.63v24.12c0 7.19 3.24 10.9 3.24 10.9h-19.46c-0.93-0.7-2.32-6.03-2.32-6.03c-7.41 9.97-21.09 9.51-21.09 9.51c-22.47 0-21.78-16.93-21.78-16.93c0-17.63 26.88-16.47 26.88-16.47c15.98 0.46 15.29-6.26 15.29-6.26c0.23-6.72-9.04-6.72-9.04-6.72c-1.32-0.22-2.67-0.15-3.96 0.18c-1.29 0.34-2.5 0.94-3.55 1.77c-1.05 0.83-1.91 1.87-2.53 3.05c-0.62 1.18-0.99 2.48-1.08 3.82h-19.69c0-19.49 30.82-18.56 30.82-18.56m-4.87 33.4c-7.41 0.7-7.41 4.87-7.41 5.33c0 5.8 8.11 5.33 8.11 5.33c14.6-1.16 13.21-14.61 13.21-14.61c-4.63 3.71-13.9 3.94-13.9 3.94l0 0z" />
		<path id="Path_57-2" class="s1" d="m338.74 0h13.21c0 0 1.85 49.18-13.21 49.18v-49.18z" />
		<path id="Path_58-2" class="s1" d="m338.74 50.57c0 0 13.9 1.16 13.9 21.81h-13.9v-21.81z" />
		<path id="Path_59-2" class="s1" d="m403.62 72.38h-13.9c0-20.65 13.9-21.81 13.9-21.81v21.81z" />
		<path id="Path_60-2" class="s1" d="m403.62 49.18c-15.06 0-13.21-49.18-13.21-49.18h13.21v49.18z" />
		<path id="Path_61-2" class="s1" d="m388.1 72.38h-33.83v-2.56c0-10.67 7.65-19.49 16.91-19.49c9.27 0 16.91 8.81 16.91 19.49v2.56z" />
		<path id="Path_62-2" fill-rule="evenodd" class="s1" d="m387.17 30.16c0 10.21-7.18 18.56-15.98 18.56c-8.8 0-15.98-8.35-15.98-18.56l-1.4-30.16h34.99l-1.62 30.16zm-15.98 12.06c5.56 0 9.96-5.1 9.96-11.37c0-6.26-4.4-11.37-9.96-11.37c-5.56 0-9.96 5.1-9.96 11.37c0.23 6.26 4.63 11.37 9.96 11.37z" />
		<path id="Path_63-2" class="s1" d="m0 72.38v-69.36h18.77v22.97c0 0 7.65-7.89 22.47-7.89c0 0 20.39 0.7 20.39 21.81v32.48h-19.46v-30.62c0 0-0.46-10.44-10.89-10.44c0 0-12.05-0.23-12.05 10.9v29.92l-19.23 0.24z" />
		<path id="Rectangle_21-2" class="s1" d="m132.99 3.02h20.16v69.36h-20.16v-69.36z" />
		<path id="Rectangle_22-2" class="s1" d="m74.84 3.02h19.46v14.15h-19.46v-14.15z" />
		<path id="Rectangle_23-2" class="s1" d="m99.4 3.02h19.46v14.15h-19.46v-14.15z" />
		<path id="Path_64-2" class="s1" d="m66.27 22.73h19.69v27.37c0 0-0.69 12.76 11.35 12.76c0 0 11.59 1.16 11.59-14.38v-25.98h19v49.87h-17.84v-5.33c-1.43 1.39-2.98 2.64-4.65 3.73c-1.66 1.09-3.43 2.02-5.27 2.77c-1.84 0.75-3.75 1.33-5.7 1.72c-1.95 0.39-3.94 0.59-5.93 0.6c-1.99 0.01-22.47 1.85-22.47-22.04v-31.08h0.23z" />
		<path id="Path_65-2" class="s1" d="m222.2 11.14h19.23v10.67h11.12v12.06h-10.89v20.88c0 0-0.23 6.26 4.87 6.26h6.49v11.37h-21.09c0 0-9.73 0.93-9.73-13.45v-24.83h-6.48v-11.13h6.26v-11.83h0.23z" />
		<path id="Path_66-2" class="s1" d="m155.7 57.3h20.39c0 0-0.46 7.19 9.27 7.19c0 0 8.57 0.7 9.5-5.33c0 0 0.93-4.87-6.95-5.1c0 0-20.62 0.7-25.95-4.87c0 0-9.73-7.65-2.55-20.18c0 0 4.87-9.28 26.88-9.28c0 0 25.95-0.93 27.57 17.86h-19.46c0 0 0.23-7.65-9.96-7.42c0 0-7.65 0-7.88 5.33c0 0-0.93 5.57 10.2 5.33c0 0 28.04-1.86 28.04 16c0 0 0.93 18.56-28.96 18.56c0 0-29.66 2.09-30.12-18.09" />
		<path id="Path_67-2" fill-rule="evenodd" class="s1" d="m288.46 19.48c29.43 0 28.27 17.63 28.27 17.63v24.12c0 7.19 3.24 10.9 3.24 10.9h-19.46c-0.93-0.7-2.32-6.03-2.32-6.03c-7.41 9.97-21.09 9.51-21.09 9.51c-22.47 0-21.78-16.93-21.78-16.93c0-17.63 26.88-16.47 26.88-16.47c15.98 0.46 15.29-6.26 15.29-6.26c0.23-6.72-9.04-6.72-9.04-6.72c-1.32-0.22-2.67-0.15-3.96 0.18c-1.29 0.34-2.5 0.94-3.55 1.77c-1.05 0.83-1.91 1.87-2.53 3.05c-0.62 1.18-0.99 2.48-1.08 3.82h-19.69c0-19.49 30.82-18.56 30.82-18.56m-4.87 33.4c-7.41 0.7-7.41 4.87-7.41 5.33c0 5.8 8.11 5.33 8.11 5.33c14.6-1.16 13.21-14.61 13.21-14.61c-4.63 3.71-13.9 3.94-13.9 3.94l0 0z" />
		<path id="Rectangle_24-2" class="s1" d="m159.87 99.75h3.71v3.94h-3.71v-3.94z" />
	</g>
</svg>