<svg xmlns="http://www.w3.org/2000/svg" width="150" height="35.7" viewBox="0 0 150 35.7"><path d="M22.35,17.1A8.1,8.1,0,0,0,26.4,9.975C26.4,3.525,20.7.6,15.075.6H0V35.4H15.3c7.65,0,12.075-3.75,12.075-10.2A8.919,8.919,0,0,0,22.35,17.1Zm-9.225-3H8.4V7.575h4.95c2.1,0,4.575.525,4.575,3.075C17.925,13.8,14.55,14.1,13.125,14.1ZM8.4,20.925h5.4c3.375,0,5.1,1.35,5.1,3.9,0,3-3.15,3.45-5.1,3.45H8.4v-7.35Z" transform="translate(0 -0.15)" fill="#fff"/><path d="M58.9,0C48.4,0,43.6,9.375,43.6,18.075,43.6,26.85,48.4,35.7,59.125,35.7c10.5,0,15.3-9.45,15.3-18.225C74.35,9.075,69.55,0,58.9,0ZM52.525,18.15c0-6.975,2.475-11.1,6.6-11.1,4.575,0,6.225,5.55,6.225,10.725,0,6.75-2.4,11.025-6.3,11.025C55.075,28.725,52.525,24.525,52.525,18.15Z" transform="translate(-10.9 0)" fill="#fff"/><rect width="8.7" height="34.8" transform="translate(141.3 0.45)" fill="#fff"/><path d="M161.65,21.45c-.75,4.575-2.925,7.275-6,7.275-3.975,0-6.525-4.125-6.525-10.575,0-6.975,2.475-11.1,6.6-11.1,3.6,0,5.325,3.375,5.925,7.275h9.075C169.675,6.975,164.8,0,155.5,0,145,0,140.2,9.375,140.2,18.075c0,8.775,4.8,17.625,15.525,17.625,8.925,0,13.725-6.825,14.925-14.325h-9Z" transform="translate(-35.05)" fill="#fff"/><path d="M113.35,21.45c-.75,4.575-2.925,7.275-6,7.275-3.975,0-6.525-4.125-6.525-10.575,0-6.975,2.475-11.1,6.6-11.1,3.6,0,5.325,3.375,5.925,7.275h9.075C121.375,6.975,116.5,0,107.2,0,96.7,0,91.9,9.375,91.9,18.075c0,8.775,4.8,17.625,15.525,17.625,8.925,0,13.725-6.825,14.925-14.325h-9Z" transform="translate(-22.975)" fill="#fff"/></svg>