<svg xmlns="http://www.w3.org/2000/svg" width="100" height="64.52" viewBox="0 0 100 64.52"><g transform="translate(0 0.005)"><g transform="translate(0 -0.005)"><path d="M81.181,4.281a14.625,14.625,0,0,0-20.684,0c-2.769,2.9-4.2,6.967-4.2,11.77s1.428,8.784,4.2,11.424,6.145,3.765,10.342,3.765a14.529,14.529,0,0,0,10.342-3.765c2.553-2.466,4.2-6.577,4.2-11.424S83.95,7.18,81.181,4.281ZM71.1,25.743c-4.587,0-7.789-4.024-7.789-9.736S66.512,5.666,71.1,5.666s7.313,4.068,7.313,10.342S75.556,25.743,71.1,25.743Z" transform="translate(-31.938 0.005)" fill="#fff"/><path d="M149.073,25.929H134.88V2H128V31.6h21.073Z" transform="translate(-72.613 -1.132)" fill="#fff"/><path d="M180.5,2V31.641h6.837v-12.2h12.808V13.683H187.337V7.669H202.4V2Z" transform="translate(-102.395 -1.132)" fill="#fff"/><path d="M66.08,99.03H79.1v-5.8H66.167V88.125H80.792V82.543L59.243,82.5H59.2v28.689H81.225V105.65H66.08Z" transform="translate(-33.583 -46.799)" fill="#fff"/><path d="M132.652,99.306l.216,1.9L122.137,82.3H115.3v28.905h6.837V93.767l-.26-1.99L132.7,111.162v.043h6.837V82.3H132.7Z" transform="translate(-65.408 -46.685)" fill="#fff"/><path d="M176.249,87.812h14.8L175.6,105.986h0v5.063h24.016V105.38H184.384l15.232-18.3h0V82.1H176.249Z" transform="translate(-99.616 -46.572)" fill="#fff"/><path d="M22.571,25.8c-.043-2.466-.13-4.976-1.125-6.361a6.274,6.274,0,0,0-2.64-2.25,7.37,7.37,0,0,0,4.543-7.01c0-3.159-1-4.89-2.942-6.274S16.167,2,13.052,2H.2V31.641H6.215V20H8.292c3.765-.043,5.322-.043,6.621,1.861s1.168,3.938,1.212,6.015.087,3.289.822,3.808H23.74C22.7,30.6,22.615,28.266,22.571,25.8ZM12.4,14.635c-1.514.043-5.842,0-6.231,0V7.669h6.361c1.731.043,2.942.519,3.548,1.385a3.418,3.418,0,0,1,.519,2.12C16.6,13.6,15.432,14.592,12.4,14.635Z" transform="translate(-0.113 -1.132)" fill="#fff"/><path d="M18.607,95.744c2.466-1.6,3.592-3.462,3.592-6.058a6.188,6.188,0,0,0-2.64-5.149C17.568,82.979,14.539,82.2,10.6,82.2H0v28.905H14.929a8.308,8.308,0,0,0,5.712-2.38,8.005,8.005,0,0,0,2.423-6.1A7.5,7.5,0,0,0,18.607,95.744ZM6.058,87.955h6.274c1.688,0,3.418.909,3.5,2.64a2.423,2.423,0,0,1-.736,1.861,3.938,3.938,0,0,1-2.813,1.082H6.058Zm10.428,14.409a3.6,3.6,0,0,1-3.678,3.072H6.058v-6.75h6.837a3.332,3.332,0,0,1,2.6,1.039A3.592,3.592,0,0,1,16.486,102.364Z" transform="translate(0 -46.629)" fill="#fff"/></g></g></svg>