<svg xmlns="http://www.w3.org/2000/svg" width="301" height="77.711" viewBox="0 0 301 77.711">
  <g id="Group_98" data-name="Group 98" transform="translate(-1544 -507)">
    <g id="KAISER_GK_logo_with-stripe" transform="translate(1545.06 508.055)">
      <rect id="Rectangle_36" data-name="Rectangle 36" width="52.401" height="18.336" transform="translate(247.532 0.863)" fill="#191818"/>
      <rect id="Rectangle_37" data-name="Rectangle 37" width="52.408" height="18.336" transform="translate(247.532 54.008)" fill="#fcd10a"/>
      <rect id="Rectangle_38" data-name="Rectangle 38" width="52.401" height="18.336" transform="translate(247.539 27.439)" fill="#d42e27"/>
      <path id="Path_87" data-name="Path 87" d="M96.43,254h9.154v16.436L118.5,254H129.38l-16.621,21.238,18.236,26.347H120.276L105.584,280.44v21.145H96.43Z" transform="translate(-96.226 -252.844)" fill="#231f20"/>
      <path id="Path_88" data-name="Path 88" d="M168.891,254h9.19l18.3,47.592h-9.418l-3.723-9.8H163.824l-3.873,9.8H150.54Zm4.652,12.62-6.388,16.336h12.734Z" transform="translate(-111.669 -252.844)" fill="#231f20"/>
      <path id="Path_89" data-name="Path 89" d="M225.65,254h9v47.592h-9Z" transform="translate(-133.106 -252.844)" fill="#231f20"/>
      <path id="Path_90" data-name="Path 90" d="M282.725,260.012l-6.71,5.917q-3.53-4.916-7.2-4.916a4.38,4.38,0,0,0-2.916.958,2.78,2.78,0,0,0-1.136,2.144,3.68,3.68,0,0,0,.807,2.265,60.566,60.566,0,0,0,6.646,6.117q5.188,4.338,6.288,5.467a18.972,18.972,0,0,1,3.9,5.324,13.291,13.291,0,0,1,1.15,5.545,12.72,12.72,0,0,1-4.045,9.7,14.769,14.769,0,0,1-10.555,3.816,15.721,15.721,0,0,1-8.861-2.494A19.463,19.463,0,0,1,253.67,292l7.618-4.595q3.437,6.31,7.9,6.31a5.824,5.824,0,0,0,3.923-1.358,4.045,4.045,0,0,0,1.586-3.137,5.417,5.417,0,0,0-1.2-3.237,34.636,34.636,0,0,0-5.281-4.952q-7.775-6.338-10.047-9.783a12.427,12.427,0,0,1-2.265-6.874,11.241,11.241,0,0,1,3.716-8.489,13.091,13.091,0,0,1,9.29-3.573,14.692,14.692,0,0,1,6.789,1.651A25.376,25.376,0,0,1,282.725,260.012Z" transform="translate(-141.103 -252.36)" fill="#231f20"/>
      <path id="Path_91" data-name="Path 91" d="M314.52,254H340.5v8.861H323.517v8.575H340.5v8.7H323.517v12.52H340.5v8.9H314.52Z" transform="translate(-158.47 -252.844)" fill="#231f20"/>
      <path id="Path_92" data-name="Path 92" d="M370.44,254h9.6q7.861,0,11.226,1.429a11.512,11.512,0,0,1,5.381,4.673,14.292,14.292,0,0,1,2.065,7.732,13.177,13.177,0,0,1-2.251,7.861,13.649,13.649,0,0,1-6.774,4.773l11.276,21.159h-9.933l-10.719-20.159h-.829v20.159h-9.04Zm9.061,18.579h2.858q4.288,0,5.953-1.136a4.153,4.153,0,0,0,1.629-3.766,4.609,4.609,0,0,0-.807-2.708,4.473,4.473,0,0,0-2.144-1.658,16.365,16.365,0,0,0-5-.5H379.5Z" transform="translate(-174.43 -252.844)" fill="#231f20"/>
      <path id="Path_93" data-name="Path 93" d="M105.528,336.086h3.008V346.4a6.836,6.836,0,0,1-1.229,4.495,6.187,6.187,0,0,1-5,1.951,8.7,8.7,0,0,1-2.98-.443,5.188,5.188,0,0,1-3.266-3.387h3.33a2.751,2.751,0,0,0,1.136.772,4.715,4.715,0,0,0,1.651.257,4.351,4.351,0,0,0,1.958-.379,2.272,2.272,0,0,0,1.043-.972,4.931,4.931,0,0,0,.307-2.058,5,5,0,0,1-1.672,1.143,5.31,5.31,0,0,1-1.979.35,5.445,5.445,0,0,1-4.095-1.751,6.789,6.789,0,0,1,.143-9,5.281,5.281,0,0,1,3.83-1.572,5.1,5.1,0,0,1,1.965.379,6.224,6.224,0,0,1,1.851,1.258ZM102.4,338.6a3.144,3.144,0,0,0-2.358.958,3.316,3.316,0,0,0-.929,2.408,3.366,3.366,0,0,0,.95,2.465,3.223,3.223,0,0,0,2.394.965,3.094,3.094,0,0,0,2.315-.943,3.394,3.394,0,0,0,.915-2.465,3.351,3.351,0,0,0-.922-2.444,3.166,3.166,0,0,0-2.365-.95Z" transform="translate(-96.12 -276.19)" fill="#231f20"/>
      <path id="Path_94" data-name="Path 94" d="M134.571,342.964h-9.74a3.23,3.23,0,0,0,1.122,2.044,3.523,3.523,0,0,0,2.33.757,4.03,4.03,0,0,0,2.908-1.186l2.544,1.193a6.01,6.01,0,0,1-2.28,2,7.146,7.146,0,0,1-3.151.65,6.231,6.231,0,0,1-4.616-1.786,6.081,6.081,0,0,1-1.779-4.473,6.288,6.288,0,0,1,1.779-4.573,5.967,5.967,0,0,1,4.452-1.822,6.188,6.188,0,0,1,4.623,1.822,6.581,6.581,0,0,1,1.779,4.809Zm-3.023-2.38a3.03,3.03,0,0,0-1.179-1.636,3.423,3.423,0,0,0-2.044-.629,3.615,3.615,0,0,0-2.215.715A3.952,3.952,0,0,0,125,340.592Z" transform="translate(-103.497 -276.18)" fill="#231f20"/>
      <path id="Path_95" data-name="Path 95" d="M147,336.077h2.587v1.515a3.23,3.23,0,0,1,1.115-1.358,2.694,2.694,0,0,1,1.529-.464,2.859,2.859,0,0,1,1.229.307l-.943,2.6a2.08,2.08,0,0,0-.872-.264,1.386,1.386,0,0,0-1.179.865,7.9,7.9,0,0,0-.479,3.387v5.417H147Z" transform="translate(-110.659 -276.182)" fill="#231f20"/>
      <path id="Path_96" data-name="Path 96" d="M163.057,336.077h3.023v1.386a5.153,5.153,0,0,1,1.722-1.272,5,5,0,0,1,2.065-.422,3.845,3.845,0,0,1,2.037.55,4,4,0,0,1,1.429,1.615,4.881,4.881,0,0,1,1.765-1.615,4.816,4.816,0,0,1,2.287-.55,4.231,4.231,0,0,1,2.258.6,3.451,3.451,0,0,1,1.429,1.558,8.339,8.339,0,0,1,.429,3.13v7.024h-3.044v-6.074a5.224,5.224,0,0,0-.507-2.773,1.744,1.744,0,0,0-1.529-.715,2.315,2.315,0,0,0-1.386.443,2.615,2.615,0,0,0-.915,1.222,7.6,7.6,0,0,0-.3,2.508v5.388h-3.044v-5.831a8.218,8.218,0,0,0-.236-2.344,2.144,2.144,0,0,0-.715-1.079,1.879,1.879,0,0,0-1.151-.357,2.272,2.272,0,0,0-1.372.45,2.672,2.672,0,0,0-.922,1.258,7.767,7.767,0,0,0-.307,2.544v5.359H163.05Z" transform="translate(-115.239 -276.181)" fill="#231f20"/>
      <path id="Path_97" data-name="Path 97" d="M206.518,336.063h3.023v12.005h-3.023V346.8a5.924,5.924,0,0,1-1.772,1.215,4.959,4.959,0,0,1-1.929.372,5.36,5.36,0,0,1-4.037-1.808,6.31,6.31,0,0,1-1.7-4.5,6.467,6.467,0,0,1,1.644-4.573,5.245,5.245,0,0,1,4-1.779,5.087,5.087,0,0,1,2.037.407,5.552,5.552,0,0,1,1.758,1.229Zm-3.173,2.48a3.051,3.051,0,0,0-2.33.993,3.944,3.944,0,0,0,.014,5.1,3.059,3.059,0,0,0,2.322,1.008,3.116,3.116,0,0,0,2.358-.993,3.623,3.623,0,0,0,.936-2.594,3.516,3.516,0,0,0-.936-2.544,3.151,3.151,0,0,0-2.365-.979Z" transform="translate(-124.95 -276.167)" fill="#231f20"/>
      <path id="Path_98" data-name="Path 98" d="M223.74,336.077h3.044v1.236a7.26,7.26,0,0,1,1.865-1.208,4.5,4.5,0,0,1,1.708-.336,4.137,4.137,0,0,1,3.037,1.251,4.288,4.288,0,0,1,1.05,3.144v7.918h-2.987v-5.274a13.355,13.355,0,0,0-.193-2.858,1.965,1.965,0,0,0-.672-1.079,1.887,1.887,0,0,0-1.186-.372,2.222,2.222,0,0,0-1.572.615,3.28,3.28,0,0,0-.908,1.7,13.669,13.669,0,0,0-.136,2.444v4.823h-3.023Z" transform="translate(-132.561 -276.181)" fill="#231f20"/>
      <path id="Path_99" data-name="Path 99" d="M258.427,329.69h1.551V339.2l5.581-4.859h2.272l-6.617,5.717,7,6.3h-2.18l-6.067-5.424v5.417H258.42Z" transform="translate(-142.459 -274.446)" fill="#231f20"/>
      <path id="Path_100" data-name="Path 100" d="M279.215,329.26a1.279,1.279,0,1,1-.893.379A1.229,1.229,0,0,1,279.215,329.26Zm-.772,4.959h1.551v12.005h-1.551Z" transform="translate(-148.033 -274.323)" fill="#231f20"/>
      <path id="Path_101" data-name="Path 101" d="M290.944,329.94h1.572v4.473h2.458v1.336h-2.458v10.719h-1.572V335.75H288.8v-1.336h2.144Z" transform="translate(-151.13 -274.518)" fill="#231f20"/>
      <path id="Path_102" data-name="Path 102" d="M316.739,338.567l-1.229.765a5.145,5.145,0,0,0-4.345-2.144,5,5,0,0,0-3.652,1.429,4.616,4.616,0,0,0-1.429,3.437,4.881,4.881,0,0,0,.672,2.48,4.688,4.688,0,0,0,1.837,1.8,5.545,5.545,0,0,0,6.946-1.472l1.229.807a5.8,5.8,0,0,1-2.315,2.015,7.409,7.409,0,0,1-3.316.715,6.546,6.546,0,0,1-4.738-1.815,5.9,5.9,0,0,1-1.879-4.416,6.31,6.31,0,0,1,.879-3.251,6.2,6.2,0,0,1,2.415-2.344,7.06,7.06,0,0,1,3.444-.843,7.348,7.348,0,0,1,2.308.364,6.432,6.432,0,0,1,1.887.95A5.181,5.181,0,0,1,316.739,338.567Z" transform="translate(-155.616 -276.17)" fill="#231f20"/>
      <path id="Path_103" data-name="Path 103" d="M330.38,329.69h1.551v6.8A6.589,6.589,0,0,1,334,334.642a5,5,0,0,1,2.444-.615,4.287,4.287,0,0,1,2.394.715,4.1,4.1,0,0,1,1.544,1.844,9.776,9.776,0,0,1,.5,3.623v6.138h-1.551V340.63a14.679,14.679,0,0,0-.164-2.78,3.152,3.152,0,0,0-1.043-1.8,3.094,3.094,0,0,0-1.987-.6,3.823,3.823,0,0,0-2.515.929,4.359,4.359,0,0,0-1.465,2.3,15.923,15.923,0,0,0-.221,3.273v4.395h-1.551Z" transform="translate(-162.997 -274.446)" fill="#231f20"/>
      <path id="Path_104" data-name="Path 104" d="M364.226,344.134l1.308.715a7.145,7.145,0,0,1-1.486,2.037,5.887,5.887,0,0,1-1.894,1.179,6.61,6.61,0,0,1-2.38.407,5.752,5.752,0,0,1-4.609-1.929,6.517,6.517,0,0,1-1.665-4.366,6.432,6.432,0,0,1,1.429-4.087,5.717,5.717,0,0,1,4.773-2.28,5.938,5.938,0,0,1,4.873,2.28,6.524,6.524,0,0,1,1.329,4.116H355.1a4.9,4.9,0,0,0,1.343,3.437,4.288,4.288,0,0,0,3.2,1.343,5.145,5.145,0,0,0,1.786-.322,4.7,4.7,0,0,0,1.479-.85,7.224,7.224,0,0,0,1.315-1.679Zm0-3.244a5.137,5.137,0,0,0-.9-1.979,4.287,4.287,0,0,0-1.565-1.193,4.8,4.8,0,0,0-2.051-.457,4.416,4.416,0,0,0-3.044,1.143,5.152,5.152,0,0,0-1.429,2.487Z" transform="translate(-169.595 -276.191)" fill="#231f20"/>
      <path id="Path_105" data-name="Path 105" d="M379.54,336.072h1.551v2.144a6.482,6.482,0,0,1,2.058-1.851,5.059,5.059,0,0,1,2.458-.615,4.288,4.288,0,0,1,2.394.715,4.1,4.1,0,0,1,1.544,1.851,9.776,9.776,0,0,1,.5,3.616v6.145h-1.551V342.36a14.149,14.149,0,0,0-.172-2.78,3.051,3.051,0,0,0-1.036-1.8,3.123,3.123,0,0,0-1.994-.6,3.823,3.823,0,0,0-2.515.929,4.352,4.352,0,0,0-1.465,2.3,16.02,16.02,0,0,0-.222,3.273v4.395H379.54Z" transform="translate(-177.027 -276.176)" fill="#231f20"/>
      <path id="Path_106" data-name="Path 106" d="M409.132,337.351l-.993,1.029a3.573,3.573,0,0,0-2.43-1.208,1.837,1.837,0,0,0-1.293.5,1.537,1.537,0,0,0-.536,1.165,1.722,1.722,0,0,0,.443,1.115,6.232,6.232,0,0,0,1.865,1.272,6.96,6.96,0,0,1,2.351,1.729,3.144,3.144,0,0,1,.607,1.894,3.394,3.394,0,0,1-1.043,2.515,3.573,3.573,0,0,1-2.6,1.029,4.552,4.552,0,0,1-1.987-.45,4.287,4.287,0,0,1-1.565-1.251l.972-1.108a3.387,3.387,0,0,0,2.515,1.336,2.265,2.265,0,0,0,1.586-.6,1.844,1.844,0,0,0,.657-1.429,1.8,1.8,0,0,0-.429-1.186,6.96,6.96,0,0,0-1.951-1.286,6.245,6.245,0,0,1-2.215-1.658,3.123,3.123,0,0,1-.586-1.872,3.044,3.044,0,0,1,.915-2.251,3.266,3.266,0,0,1,2.365-.908,4.9,4.9,0,0,1,3.351,1.622Z" transform="translate(-183.423 -276.169)" fill="#231f20"/>
      <path id="Path_107" data-name="Path 107" d="M249.484,349.159V351.9H246.84V349.13Z" transform="translate(-139.154 -279.995)" fill="#231f20"/>
    </g>
    <g id="KAISER_GK_logo_with-stripe-2" data-name="KAISER_GK_logo_with-stripe" transform="translate(1544.06 507.055)">
      <path id="Path_87-2" data-name="Path 87" d="M96.43,254h9.154v16.436L118.5,254H129.38l-16.621,21.238,18.236,26.347H120.276L105.584,280.44v21.145H96.43Z" transform="translate(-96.226 -252.844)" fill="#fff"/>
      <path id="Path_88-2" data-name="Path 88" d="M168.891,254h9.19l18.3,47.592h-9.418l-3.723-9.8H163.824l-3.873,9.8H150.54Zm4.652,12.62-6.388,16.336h12.734Z" transform="translate(-111.669 -252.844)" fill="#fff"/>
      <path id="Path_89-2" data-name="Path 89" d="M225.65,254h9v47.592h-9Z" transform="translate(-133.106 -252.844)" fill="#fff"/>
      <path id="Path_90-2" data-name="Path 90" d="M282.725,260.012l-6.71,5.917q-3.53-4.916-7.2-4.916a4.38,4.38,0,0,0-2.916.958,2.78,2.78,0,0,0-1.136,2.144,3.68,3.68,0,0,0,.807,2.265,60.566,60.566,0,0,0,6.646,6.117q5.188,4.338,6.288,5.467a18.972,18.972,0,0,1,3.9,5.324,13.291,13.291,0,0,1,1.15,5.545,12.72,12.72,0,0,1-4.045,9.7,14.769,14.769,0,0,1-10.555,3.816,15.721,15.721,0,0,1-8.861-2.494A19.463,19.463,0,0,1,253.67,292l7.618-4.595q3.437,6.31,7.9,6.31a5.824,5.824,0,0,0,3.923-1.358,4.045,4.045,0,0,0,1.586-3.137,5.417,5.417,0,0,0-1.2-3.237,34.636,34.636,0,0,0-5.281-4.952q-7.775-6.338-10.047-9.783a12.427,12.427,0,0,1-2.265-6.874,11.241,11.241,0,0,1,3.716-8.489,13.091,13.091,0,0,1,9.29-3.573,14.692,14.692,0,0,1,6.789,1.651A25.376,25.376,0,0,1,282.725,260.012Z" transform="translate(-141.103 -252.36)" fill="#fff"/>
      <path id="Path_91-2" data-name="Path 91" d="M314.52,254H340.5v8.861H323.517v8.575H340.5v8.7H323.517v12.52H340.5v8.9H314.52Z" transform="translate(-158.47 -252.844)" fill="#fff"/>
      <path id="Path_92-2" data-name="Path 92" d="M370.44,254h9.6q7.861,0,11.226,1.429a11.512,11.512,0,0,1,5.381,4.673,14.292,14.292,0,0,1,2.065,7.732,13.177,13.177,0,0,1-2.251,7.861,13.649,13.649,0,0,1-6.774,4.773l11.276,21.159h-9.933l-10.719-20.159h-.829v20.159h-9.04Zm9.061,18.579h2.858q4.288,0,5.953-1.136a4.153,4.153,0,0,0,1.629-3.766,4.609,4.609,0,0,0-.807-2.708,4.473,4.473,0,0,0-2.144-1.658,16.365,16.365,0,0,0-5-.5H379.5Z" transform="translate(-174.43 -252.844)" fill="#fff"/>
      <path id="Path_93-2" data-name="Path 93" d="M105.528,336.086h3.008V346.4a6.836,6.836,0,0,1-1.229,4.495,6.187,6.187,0,0,1-5,1.951,8.7,8.7,0,0,1-2.98-.443,5.188,5.188,0,0,1-3.266-3.387h3.33a2.751,2.751,0,0,0,1.136.772,4.715,4.715,0,0,0,1.651.257,4.351,4.351,0,0,0,1.958-.379,2.272,2.272,0,0,0,1.043-.972,4.931,4.931,0,0,0,.307-2.058,5,5,0,0,1-1.672,1.143,5.31,5.31,0,0,1-1.979.35,5.445,5.445,0,0,1-4.095-1.751,6.789,6.789,0,0,1,.143-9,5.281,5.281,0,0,1,3.83-1.572,5.1,5.1,0,0,1,1.965.379,6.224,6.224,0,0,1,1.851,1.258ZM102.4,338.6a3.144,3.144,0,0,0-2.358.958,3.316,3.316,0,0,0-.929,2.408,3.366,3.366,0,0,0,.95,2.465,3.223,3.223,0,0,0,2.394.965,3.094,3.094,0,0,0,2.315-.943,3.394,3.394,0,0,0,.915-2.465,3.351,3.351,0,0,0-.922-2.444,3.166,3.166,0,0,0-2.365-.95Z" transform="translate(-96.12 -276.19)" fill="#fff"/>
      <path id="Path_94-2" data-name="Path 94" d="M134.571,342.964h-9.74a3.23,3.23,0,0,0,1.122,2.044,3.523,3.523,0,0,0,2.33.757,4.03,4.03,0,0,0,2.908-1.186l2.544,1.193a6.01,6.01,0,0,1-2.28,2,7.146,7.146,0,0,1-3.151.65,6.231,6.231,0,0,1-4.616-1.786,6.081,6.081,0,0,1-1.779-4.473,6.288,6.288,0,0,1,1.779-4.573,5.967,5.967,0,0,1,4.452-1.822,6.188,6.188,0,0,1,4.623,1.822,6.581,6.581,0,0,1,1.779,4.809Zm-3.023-2.38a3.03,3.03,0,0,0-1.179-1.636,3.423,3.423,0,0,0-2.044-.629,3.615,3.615,0,0,0-2.215.715A3.952,3.952,0,0,0,125,340.592Z" transform="translate(-103.497 -276.18)" fill="#fff"/>
      <path id="Path_95-2" data-name="Path 95" d="M147,336.077h2.587v1.515a3.23,3.23,0,0,1,1.115-1.358,2.694,2.694,0,0,1,1.529-.464,2.859,2.859,0,0,1,1.229.307l-.943,2.6a2.08,2.08,0,0,0-.872-.264,1.386,1.386,0,0,0-1.179.865,7.9,7.9,0,0,0-.479,3.387v5.417H147Z" transform="translate(-110.659 -276.182)" fill="#fff"/>
      <path id="Path_96-2" data-name="Path 96" d="M163.057,336.077h3.023v1.386a5.153,5.153,0,0,1,1.722-1.272,5,5,0,0,1,2.065-.422,3.845,3.845,0,0,1,2.037.55,4,4,0,0,1,1.429,1.615,4.881,4.881,0,0,1,1.765-1.615,4.816,4.816,0,0,1,2.287-.55,4.231,4.231,0,0,1,2.258.6,3.451,3.451,0,0,1,1.429,1.558,8.339,8.339,0,0,1,.429,3.13v7.024h-3.044v-6.074a5.224,5.224,0,0,0-.507-2.773,1.744,1.744,0,0,0-1.529-.715,2.315,2.315,0,0,0-1.386.443,2.615,2.615,0,0,0-.915,1.222,7.6,7.6,0,0,0-.3,2.508v5.388h-3.044v-5.831a8.218,8.218,0,0,0-.236-2.344,2.144,2.144,0,0,0-.715-1.079,1.879,1.879,0,0,0-1.151-.357,2.272,2.272,0,0,0-1.372.45,2.672,2.672,0,0,0-.922,1.258,7.767,7.767,0,0,0-.307,2.544v5.359H163.05Z" transform="translate(-115.239 -276.181)" fill="#fff"/>
      <path id="Path_97-2" data-name="Path 97" d="M206.518,336.063h3.023v12.005h-3.023V346.8a5.924,5.924,0,0,1-1.772,1.215,4.959,4.959,0,0,1-1.929.372,5.36,5.36,0,0,1-4.037-1.808,6.31,6.31,0,0,1-1.7-4.5,6.467,6.467,0,0,1,1.644-4.573,5.245,5.245,0,0,1,4-1.779,5.087,5.087,0,0,1,2.037.407,5.552,5.552,0,0,1,1.758,1.229Zm-3.173,2.48a3.051,3.051,0,0,0-2.33.993,3.944,3.944,0,0,0,.014,5.1,3.059,3.059,0,0,0,2.322,1.008,3.116,3.116,0,0,0,2.358-.993,3.623,3.623,0,0,0,.936-2.594,3.516,3.516,0,0,0-.936-2.544,3.151,3.151,0,0,0-2.365-.979Z" transform="translate(-124.95 -276.167)" fill="#fff"/>
      <path id="Path_98-2" data-name="Path 98" d="M223.74,336.077h3.044v1.236a7.26,7.26,0,0,1,1.865-1.208,4.5,4.5,0,0,1,1.708-.336,4.137,4.137,0,0,1,3.037,1.251,4.288,4.288,0,0,1,1.05,3.144v7.918h-2.987v-5.274a13.355,13.355,0,0,0-.193-2.858,1.965,1.965,0,0,0-.672-1.079,1.887,1.887,0,0,0-1.186-.372,2.222,2.222,0,0,0-1.572.615,3.28,3.28,0,0,0-.908,1.7,13.669,13.669,0,0,0-.136,2.444v4.823h-3.023Z" transform="translate(-132.561 -276.181)" fill="#fff"/>
      <path id="Path_99-2" data-name="Path 99" d="M258.427,329.69h1.551V339.2l5.581-4.859h2.272l-6.617,5.717,7,6.3h-2.18l-6.067-5.424v5.417H258.42Z" transform="translate(-142.459 -274.446)" fill="#fff"/>
      <path id="Path_100-2" data-name="Path 100" d="M279.215,329.26a1.279,1.279,0,1,1-.893.379A1.229,1.229,0,0,1,279.215,329.26Zm-.772,4.959h1.551v12.005h-1.551Z" transform="translate(-148.033 -274.323)" fill="#fff"/>
      <path id="Path_101-2" data-name="Path 101" d="M290.944,329.94h1.572v4.473h2.458v1.336h-2.458v10.719h-1.572V335.75H288.8v-1.336h2.144Z" transform="translate(-151.13 -274.518)" fill="#fff"/>
      <path id="Path_102-2" data-name="Path 102" d="M316.739,338.567l-1.229.765a5.145,5.145,0,0,0-4.345-2.144,5,5,0,0,0-3.652,1.429,4.616,4.616,0,0,0-1.429,3.437,4.881,4.881,0,0,0,.672,2.48,4.688,4.688,0,0,0,1.837,1.8,5.545,5.545,0,0,0,6.946-1.472l1.229.807a5.8,5.8,0,0,1-2.315,2.015,7.409,7.409,0,0,1-3.316.715,6.546,6.546,0,0,1-4.738-1.815,5.9,5.9,0,0,1-1.879-4.416,6.31,6.31,0,0,1,.879-3.251,6.2,6.2,0,0,1,2.415-2.344,7.06,7.06,0,0,1,3.444-.843,7.348,7.348,0,0,1,2.308.364,6.432,6.432,0,0,1,1.887.95A5.181,5.181,0,0,1,316.739,338.567Z" transform="translate(-155.616 -276.17)" fill="#fff"/>
      <path id="Path_103-2" data-name="Path 103" d="M330.38,329.69h1.551v6.8A6.589,6.589,0,0,1,334,334.642a5,5,0,0,1,2.444-.615,4.287,4.287,0,0,1,2.394.715,4.1,4.1,0,0,1,1.544,1.844,9.776,9.776,0,0,1,.5,3.623v6.138h-1.551V340.63a14.679,14.679,0,0,0-.164-2.78,3.152,3.152,0,0,0-1.043-1.8,3.094,3.094,0,0,0-1.987-.6,3.823,3.823,0,0,0-2.515.929,4.359,4.359,0,0,0-1.465,2.3,15.923,15.923,0,0,0-.221,3.273v4.395h-1.551Z" transform="translate(-162.997 -274.446)" fill="#fff"/>
      <path id="Path_104-2" data-name="Path 104" d="M364.226,344.134l1.308.715a7.145,7.145,0,0,1-1.486,2.037,5.887,5.887,0,0,1-1.894,1.179,6.61,6.61,0,0,1-2.38.407,5.752,5.752,0,0,1-4.609-1.929,6.517,6.517,0,0,1-1.665-4.366,6.432,6.432,0,0,1,1.429-4.087,5.717,5.717,0,0,1,4.773-2.28,5.938,5.938,0,0,1,4.873,2.28,6.524,6.524,0,0,1,1.329,4.116H355.1a4.9,4.9,0,0,0,1.343,3.437,4.288,4.288,0,0,0,3.2,1.343,5.145,5.145,0,0,0,1.786-.322,4.7,4.7,0,0,0,1.479-.85,7.224,7.224,0,0,0,1.315-1.679Zm0-3.244a5.137,5.137,0,0,0-.9-1.979,4.287,4.287,0,0,0-1.565-1.193,4.8,4.8,0,0,0-2.051-.457,4.416,4.416,0,0,0-3.044,1.143,5.152,5.152,0,0,0-1.429,2.487Z" transform="translate(-169.595 -276.191)" fill="#fff"/>
      <path id="Path_105-2" data-name="Path 105" d="M379.54,336.072h1.551v2.144a6.482,6.482,0,0,1,2.058-1.851,5.059,5.059,0,0,1,2.458-.615,4.288,4.288,0,0,1,2.394.715,4.1,4.1,0,0,1,1.544,1.851,9.776,9.776,0,0,1,.5,3.616v6.145h-1.551V342.36a14.149,14.149,0,0,0-.172-2.78,3.051,3.051,0,0,0-1.036-1.8,3.123,3.123,0,0,0-1.994-.6,3.823,3.823,0,0,0-2.515.929,4.352,4.352,0,0,0-1.465,2.3,16.02,16.02,0,0,0-.222,3.273v4.395H379.54Z" transform="translate(-177.027 -276.176)" fill="#fff"/>
      <path id="Path_106-2" data-name="Path 106" d="M409.132,337.351l-.993,1.029a3.573,3.573,0,0,0-2.43-1.208,1.837,1.837,0,0,0-1.293.5,1.537,1.537,0,0,0-.536,1.165,1.722,1.722,0,0,0,.443,1.115,6.232,6.232,0,0,0,1.865,1.272,6.96,6.96,0,0,1,2.351,1.729,3.144,3.144,0,0,1,.607,1.894,3.394,3.394,0,0,1-1.043,2.515,3.573,3.573,0,0,1-2.6,1.029,4.552,4.552,0,0,1-1.987-.45,4.287,4.287,0,0,1-1.565-1.251l.972-1.108a3.387,3.387,0,0,0,2.515,1.336,2.265,2.265,0,0,0,1.586-.6,1.844,1.844,0,0,0,.657-1.429,1.8,1.8,0,0,0-.429-1.186,6.96,6.96,0,0,0-1.951-1.286,6.245,6.245,0,0,1-2.215-1.658,3.123,3.123,0,0,1-.586-1.872,3.044,3.044,0,0,1,.915-2.251,3.266,3.266,0,0,1,2.365-.908,4.9,4.9,0,0,1,3.351,1.622Z" transform="translate(-183.423 -276.169)" fill="#fff"/>
      <path id="Path_107-2" data-name="Path 107" d="M249.484,349.159V351.9H246.84V349.13Z" transform="translate(-139.154 -279.995)" fill="#fff"/>
    </g>
  </g>
</svg>
